# This file uses centimeters as units for non-parametric coordinates.

mtllib ONLYCANAL.mtl
g default
v -0.733659 0.234599 -3.972744
v -0.013539 0.234599 -4.159213
v -0.212593 0.234479 -4.668486
v -0.822271 0.234424 -4.279431
v -0.619202 0.234599 -3.432703
v 0.104596 0.234599 -3.593669
v -0.433981 0.234599 -2.956708
v 0.310942 0.234599 -3.188648
v 0.035743 0.234599 -2.319092
v 0.758888 0.234599 -2.769481
v 0.830941 0.234599 -2.167775
v 1.314596 0.234599 -2.673916
v 1.526837 0.234599 -2.200323
v 1.813785 0.234599 -2.720064
v 2.151758 0.234599 -2.121087
v 2.449029 0.234599 -2.689677
v 2.620847 0.234599 -1.860041
v 3.025188 0.234599 -2.403407
v 2.816313 0.234599 -1.560745
v 3.574328 0.234599 -1.686460
v 3.545499 0.234599 -1.179544
v 2.813992 0.234599 -1.039643
v 2.856136 0.234599 -0.504748
v 3.541491 0.234599 -0.580222
v 2.786524 0.234599 0.035965
v 3.450690 0.234599 -0.028183
v 2.753300 0.234599 0.537343
v 3.450446 0.234599 0.488125
v 2.826416 0.234599 0.987478
v 3.514967 0.234599 0.877560
v 2.872494 0.234599 1.449776
v 3.543616 0.234599 1.400541
v 2.827631 0.234599 1.988139
v 3.532399 0.234599 1.916474
v 2.771551 0.234599 2.548935
v 3.453890 0.234599 2.488487
v 2.766706 0.227864 2.939652
v 3.424276 0.227864 3.006027
v 2.118404 0.234599 -2.748666
v 1.870865 0.234599 -2.150166
v 0.390495 0.234599 -2.174451
v 1.030504 0.234599 -2.706383
v -0.234032 0.234599 -2.636892
v 0.518969 0.234599 -2.920093
v 2.767172 0.234599 -1.719136
v 3.330530 0.234599 -2.154736
v 2.415570 0.234599 -1.976304
v 2.814642 0.234599 -2.535230
v -0.733659 0.350503 -3.972744
v -0.013539 0.350503 -4.159213
v -0.212593 0.310838 -4.668486
v -0.822271 0.310783 -4.279431
v 0.104596 0.350503 -3.593669
v -0.619202 0.350503 -3.432703
v 0.310942 0.350503 -3.188648
v -0.433981 0.350503 -2.956708
v -0.234032 0.350503 -2.636892
v 0.518969 0.350503 -2.920093
v 0.035743 0.350503 -2.319092
v 0.390495 0.350503 -2.174451
v 1.030504 0.350503 -2.706383
v 0.758888 0.350503 -2.769481
v 0.830941 0.350503 -2.167775
v 1.526837 0.350503 -2.200323
v 1.813785 0.350503 -2.720064
v 1.314596 0.350503 -2.673916
v 2.449029 0.350503 -2.689677
v 2.118404 0.350503 -2.748666
v 1.870865 0.350503 -2.150166
v 2.151758 0.350503 -2.121087
v 2.415570 0.350503 -1.976304
v 2.814642 0.350503 -2.535230
v 2.620847 0.350503 -1.860041
v 3.025188 0.350503 -2.403407
v 2.767172 0.350503 -1.719136
v 3.330530 0.350503 -2.154736
v 2.813992 0.350503 -1.039643
v 3.545499 0.350503 -1.179544
v 3.574328 0.350503 -1.686460
v 2.816313 0.350503 -1.560745
v 3.541491 0.350503 -0.580222
v 2.856136 0.350503 -0.504748
v 3.450690 0.350503 -0.028183
v 2.786524 0.350503 0.035965
v 2.753300 0.350503 0.537343
v 3.450446 0.350503 0.488125
v 3.514967 0.350503 0.877560
v 2.826416 0.350503 0.987478
v 2.872494 0.350503 1.449776
v 3.543616 0.350503 1.400541
v 2.827631 0.350503 1.988139
v 3.532399 0.350503 1.916474
v 2.771551 0.350503 2.548935
v 3.453890 0.350503 2.488487
v 3.424276 0.343768 3.006027
v 2.766706 0.343768 2.939652
vt 0.000000 0.000000
vt 0.729096 0.000000
vt 0.737456 1.000000
vt 0.148827 0.739130
vt 0.000000 0.000000
vt 1.000000 0.000000
vt 1.000000 1.000000
vt 0.000000 1.000000
vt 0.000000 0.000000
vt 1.000000 0.000000
vt 1.000000 1.000000
vt 0.000000 1.000000
vt 0.000000 0.000000
vt 1.000000 0.000000
vt 1.000000 1.000000
vt 0.000000 1.000000
vt 0.000000 0.000000
vt 1.000000 0.000000
vt 1.000000 1.000000
vt 0.000000 1.000000
vt 0.000000 0.000000
vt 1.000000 0.000000
vt 1.000000 1.000000
vt 0.000000 1.000000
vt 0.000000 0.000000
vt 1.000000 0.000000
vt 1.000000 1.000000
vt 0.000000 1.000000
vt 0.000000 0.000000
vt 1.000000 0.000000
vt 1.000000 1.000000
vt 0.000000 1.000000
vt 0.000000 0.000000
vt 1.000000 0.000000
vt 1.000000 1.000000
vt 0.000000 1.000000
vt 0.000000 0.000000
vt 1.000000 0.000000
vt 1.000000 1.000000
vt 0.000000 1.000000
vt 0.000000 0.000000
vt 1.000000 0.000000
vt 1.000000 1.000000
vt 0.000000 1.000000
vt 0.000000 0.000000
vt 1.000000 0.000000
vt 1.000000 1.000000
vt 0.000000 1.000000
vt 0.000000 0.000000
vt 1.000000 0.000000
vt 1.000000 1.000000
vt 0.000000 1.000000
vt 0.000000 0.000000
vt 1.000000 0.000000
vt 1.000000 1.000000
vt 0.000000 1.000000
vt 0.000000 0.000000
vt 1.000000 0.000000
vt 1.000000 1.000000
vt 0.000000 1.000000
vt 0.000000 0.000000
vt 1.000000 0.000000
vt 1.000000 1.000000
vt 0.000000 1.000000
vt 0.000000 0.000000
vt 1.000000 0.000000
vt 1.000000 1.000000
vt 0.000000 1.000000
vt 0.000000 0.000000
vt 1.000000 0.000000
vt 1.000000 1.000000
vt 0.000000 1.000000
vt 0.430298 0.000000
vt 0.430298 1.000000
vt 0.582268 0.000000
vt 0.582268 1.000000
vt 0.495201 0.000000
vt 0.495201 1.000000
vt 1.000000 0.566985
vt 0.000000 0.566985
vt 0.558779 0.000000
vt 0.558779 1.000000
vt 0.000000 0.000000
vt 0.729096 0.000000
vt 0.737456 1.000000
vt 0.148827 0.739130
vt 0.000000 0.000000
vt 1.000000 0.000000
vt 1.000000 1.000000
vt 0.000000 1.000000
vt 0.000000 0.000000
vt 1.000000 0.000000
vt 1.000000 1.000000
vt 0.000000 1.000000
vt 0.000000 0.000000
vt 0.495201 0.000000
vt 0.495201 1.000000
vt 0.000000 1.000000
vt 0.000000 0.000000
vt 0.582268 0.000000
vt 0.582268 1.000000
vt 0.000000 1.000000
vt 0.000000 0.000000
vt 1.000000 0.000000
vt 1.000000 1.000000
vt 0.000000 1.000000
vt 0.000000 0.000000
vt 0.430298 0.000000
vt 0.430298 1.000000
vt 0.000000 1.000000
vt 0.000000 0.000000
vt 0.558779 0.000000
vt 0.558779 1.000000
vt 0.000000 1.000000
vt 0.000000 0.000000
vt 1.000000 0.000000
vt 1.000000 0.566985
vt 0.000000 0.566985
vt 0.000000 0.000000
vt 1.000000 0.000000
vt 1.000000 1.000000
vt 0.000000 1.000000
vt 0.000000 0.000000
vt 1.000000 0.000000
vt 1.000000 1.000000
vt 0.000000 1.000000
vt 0.000000 0.000000
vt 1.000000 0.000000
vt 1.000000 1.000000
vt 0.000000 1.000000
vt 0.000000 0.000000
vt 1.000000 0.000000
vt 1.000000 1.000000
vt 0.000000 1.000000
vt 0.000000 0.000000
vt 1.000000 0.000000
vt 1.000000 1.000000
vt 0.000000 1.000000
vt 0.000000 0.000000
vt 1.000000 0.000000
vt 1.000000 1.000000
vt 0.000000 1.000000
vt 0.000000 0.000000
vt 1.000000 0.000000
vt 1.000000 1.000000
vt 0.000000 1.000000
vt 0.000000 0.000000
vt 1.000000 0.000000
vt 1.000000 1.000000
vt 0.000000 1.000000
vt 0.000000 0.000000
vt 1.000000 0.000000
vt 1.000000 1.000000
vt 0.000000 1.000000
vt 1.000000 0.000000
vt 1.000000 1.000000
vt 1.000000 0.000000
vt 1.000000 1.000000
vt 1.000000 0.000000
vt 1.000000 1.000000
vt 1.000000 1.000000
vt 0.000000 1.000000
vt 1.000000 0.000000
vt 1.000000 1.000000
vt 0.729096 0.000000
vt 0.737456 1.000000
vt 0.148827 0.739130
vt 0.000000 0.000000
vt 0.000000 0.000000
vt 1.000000 0.000000
vt 1.000000 1.000000
vt 0.000000 1.000000
vt 0.000000 0.000000
vt 1.000000 0.000000
vt 1.000000 1.000000
vt 0.000000 1.000000
vt 0.000000 0.000000
vt 0.495201 0.000000
vt 0.495201 1.000000
vt 0.000000 1.000000
vt 0.000000 0.000000
vt 0.582268 0.000000
vt 0.582268 1.000000
vt 0.000000 1.000000
vt 0.000000 0.000000
vt 1.000000 0.000000
vt 1.000000 1.000000
vt 0.000000 1.000000
vt 0.000000 0.000000
vt 0.430298 0.000000
vt 0.430298 1.000000
vt 0.000000 1.000000
vt 0.000000 0.000000
vt 0.558779 0.000000
vt 0.558779 1.000000
vt 0.000000 1.000000
vt 1.000000 0.000000
vt 1.000000 0.566985
vt 0.000000 0.566985
vt 0.000000 0.000000
vt 1.000000 0.000000
vt 1.000000 1.000000
vt 0.000000 1.000000
vt 0.000000 0.000000
vt 0.000000 0.000000
vt 1.000000 0.000000
vt 1.000000 1.000000
vt 0.000000 1.000000
vt 0.000000 0.000000
vt 1.000000 0.000000
vt 1.000000 1.000000
vt 0.000000 1.000000
vt 0.000000 0.000000
vt 1.000000 0.000000
vt 1.000000 1.000000
vt 0.000000 1.000000
vt 0.000000 0.000000
vt 1.000000 0.000000
vt 1.000000 1.000000
vt 0.000000 1.000000
vt 0.000000 0.000000
vt 1.000000 0.000000
vt 1.000000 1.000000
vt 0.000000 1.000000
vt 0.000000 0.000000
vt 1.000000 0.000000
vt 1.000000 1.000000
vt 0.000000 1.000000
vt 0.000000 0.000000
vt 1.000000 0.000000
vt 1.000000 1.000000
vt 0.000000 1.000000
vt 0.000000 0.000000
vt 1.000000 0.000000
vt 1.000000 1.000000
vt 0.000000 1.000000
vt 1.000000 0.000000
vt 1.000000 1.000000
vt 1.000000 0.000000
vt 1.000000 1.000000
vt 1.000000 0.000000
vt 1.000000 1.000000
vt 1.000000 1.000000
vt 0.000000 1.000000
vt 1.000000 0.000000
vt 1.000000 1.000000
vn -0.036415 0.995796 -0.084044
vn -0.036415 0.995797 -0.084044
vn -0.036415 0.995797 -0.084044
vn -0.036415 0.995796 -0.084044
vn 0.000000 1.000000 0.000000
vn 0.000000 1.000000 0.000000
vn 0.000000 1.000000 0.000000
vn 0.000000 1.000000 0.000000
vn 0.000000 1.000000 -0.000000
vn 0.000000 1.000000 -0.000000
vn 0.000000 1.000000 -0.000000
vn 0.000000 1.000000 -0.000000
vn 0.000000 1.000000 0.000000
vn 0.000000 1.000000 0.000000
vn 0.000000 1.000000 0.000000
vn 0.000000 1.000000 0.000000
vn 0.000000 1.000000 0.000000
vn 0.000000 1.000000 0.000000
vn 0.000000 1.000000 0.000000
vn 0.000000 1.000000 0.000000
vn 0.000000 1.000000 -0.000000
vn 0.000000 1.000000 -0.000000
vn 0.000000 1.000000 -0.000000
vn 0.000000 1.000000 -0.000000
vn 0.000000 1.000000 0.000000
vn 0.000000 1.000000 0.000000
vn 0.000000 1.000000 0.000000
vn 0.000000 1.000000 0.000000
vn 0.000000 1.000000 -0.000000
vn 0.000000 1.000000 -0.000000
vn 0.000000 1.000000 -0.000000
vn 0.000000 1.000000 -0.000000
vn 0.000000 1.000000 0.000000
vn 0.000000 1.000000 0.000000
vn 0.000000 1.000000 -0.000000
vn 0.000000 1.000000 -0.000000
vn 0.000000 1.000000 -0.000000
vn 0.000000 1.000000 -0.000000
vn 0.000000 1.000000 -0.000000
vn 0.000000 1.000000 -0.000000
vn 0.000000 1.000000 0.000000
vn 0.000000 1.000000 0.000000
vn 0.000000 1.000000 0.000000
vn 0.000000 1.000000 0.000000
vn 0.000000 1.000000 0.000000
vn 0.000000 1.000000 0.000000
vn 0.000000 1.000000 0.000000
vn 0.000000 1.000000 0.000000
vn 0.000000 1.000000 -0.000000
vn 0.000000 1.000000 -0.000000
vn 0.000000 1.000000 -0.000000
vn 0.000000 1.000000 -0.000000
vn 0.000000 1.000000 0.000000
vn 0.000000 1.000000 0.000000
vn 0.000000 1.000000 0.000000
vn 0.000000 1.000000 0.000000
vn 0.000000 1.000000 0.000000
vn 0.000000 1.000000 0.000000
vn 0.000000 1.000000 0.000000
vn 0.000000 1.000000 0.000000
vn 0.000000 1.000000 0.000000
vn 0.000000 1.000000 0.000000
vn 0.000000 1.000000 0.000000
vn 0.000000 1.000000 0.000000
vn 0.000000 1.000000 0.000000
vn 0.000000 1.000000 0.000000
vn 0.000000 1.000000 0.000000
vn 0.000000 1.000000 0.000000
vn -0.000066 0.999890 0.014827
vn -0.000066 0.999890 0.014827
vn -0.000066 0.999890 0.014827
vn -0.000066 0.999890 0.014827
vn 0.000000 1.000000 0.000000
vn 0.000000 1.000000 0.000000
vn 0.000000 1.000000 0.000000
vn 0.000000 1.000000 0.000000
vn 0.000000 1.000000 -0.000000
vn 0.000000 1.000000 -0.000000
vn 0.000000 1.000000 -0.000000
vn 0.000000 1.000000 -0.000000
vn 0.000000 1.000000 0.000000
vn 0.000000 1.000000 0.000000
vn -0.000171 1.000000 -0.000301
vn -0.000171 1.000000 -0.000301
vn -0.000171 1.000000 -0.000301
vn -0.000171 1.000000 -0.000301
vn 0.000000 1.000000 0.000000
vn 0.000000 1.000000 0.000000
vn 0.000000 1.000000 0.000000
vn 0.000000 1.000000 0.000000
vn 0.000000 1.000000 -0.000000
vn 0.000000 1.000000 -0.000000
vn 0.000000 1.000000 -0.000000
vn 0.000000 1.000000 -0.000000
vn 0.000000 1.000000 0.000000
vn 0.000000 1.000000 0.000000
vn 0.000000 1.000000 0.000000
vn 0.000000 1.000000 0.000000
vn 0.000000 1.000000 0.000000
vn 0.000000 1.000000 0.000000
vn 0.000000 1.000000 0.000000
vn 0.000000 1.000000 0.000000
vn 0.000000 1.000000 -0.000000
vn 0.000000 1.000000 -0.000000
vn 0.000000 1.000000 -0.000000
vn 0.000000 1.000000 -0.000000
vn 0.000000 1.000000 0.000000
vn 0.000000 1.000000 0.000000
vn 0.000000 1.000000 0.000000
vn 0.000000 1.000000 0.000000
vn 0.000000 1.000000 0.000000
vn 0.000000 1.000000 0.000000
vn 0.000000 1.000000 0.000000
vn 0.000000 1.000000 0.000000
vn 0.000000 1.000000 0.000000
vn 0.000000 1.000000 0.000000
vn 0.000000 1.000000 0.000000
vn 0.000000 1.000000 0.000000
vn 0.000000 1.000000 0.000000
vn 0.000000 1.000000 0.000000
vn 0.000000 1.000000 0.000000
vn 0.000000 1.000000 0.000000
vn 0.000000 1.000000 0.000000
vn 0.000000 1.000000 0.000000
vn 0.000000 1.000000 0.000000
vn 0.000000 1.000000 0.000000
vn 0.000000 1.000000 -0.000000
vn 0.000000 1.000000 -0.000000
vn 0.000000 1.000000 -0.000000
vn 0.000000 1.000000 -0.000000
vn 0.000000 1.000000 0.000000
vn 0.000000 1.000000 0.000000
vn 0.000000 1.000000 0.000000
vn 0.000000 1.000000 0.000000
vn 0.000000 1.000000 0.000000
vn 0.000000 1.000000 0.000000
vn 0.000000 1.000000 0.000000
vn 0.000000 1.000000 0.000000
vn 0.000000 1.000000 -0.000000
vn 0.000000 1.000000 -0.000000
vn 0.000000 1.000000 -0.000000
vn 0.000000 1.000000 -0.000000
vn 0.000000 1.000000 0.000000
vn 0.000000 1.000000 0.000000
vn 0.000000 1.000000 0.000000
vn 0.000000 1.000000 0.000000
vn 0.000000 1.000000 0.000000
vn 0.000000 1.000000 0.000000
vn 0.000000 1.000000 0.000000
vn 0.000000 1.000000 0.000000
vn -0.000066 0.999890 0.014827
vn -0.000066 0.999890 0.014827
vn -0.000066 0.999890 0.014827
vn -0.000066 0.999890 0.014827
vn 0.000000 1.000000 0.000000
vn 0.000000 1.000000 0.000000
vn 0.000000 1.000000 0.000000
vn 0.000000 1.000000 0.000000
vn 0.000000 1.000000 -0.000000
vn 0.000000 1.000000 -0.000000
vn 0.000000 1.000000 0.000000
vn 0.000000 1.000000 0.000000
vn 0.000000 1.000000 0.000000
vn 0.000000 1.000000 0.000000
vn 0.931383 0.000000 -0.364040
vn 0.931384 0.000000 -0.364040
vn 0.931384 0.000000 -0.364040
vn 0.931384 0.000000 -0.364040
vn -0.537937 0.000000 -0.842985
vn -0.537937 0.000000 -0.842985
vn -0.537937 0.000000 -0.842985
vn -0.537937 0.000000 -0.842985
vn -0.960703 0.000000 0.277579
vn -0.960703 0.000000 0.277579
vn -0.960703 0.000000 0.277579
vn -0.960703 0.000000 0.277579
vn 0.978872 0.000000 -0.204474
vn 0.978872 0.000000 -0.204474
vn 0.978872 0.000000 -0.204474
vn 0.978872 0.000000 -0.204474
vn -0.978270 0.000000 0.207335
vn -0.978270 0.000000 0.207335
vn -0.978270 0.000000 0.207335
vn -0.978270 0.000000 0.207335
vn 0.891026 0.000000 -0.453952
vn 0.891026 0.000000 -0.453952
vn 0.891026 0.000000 -0.453952
vn 0.891026 0.000000 -0.453952
vn -0.931931 0.000000 0.362637
vn -0.931931 0.000000 0.362637
vn -0.931931 0.000000 0.362637
vn -0.931931 0.000000 0.362637
vn -0.847922 0.000000 0.530121
vn -0.847922 0.000000 0.530121
vn -0.847922 0.000000 0.530121
vn -0.847922 0.000000 0.530121
vn 0.790563 0.000000 -0.612380
vn 0.790563 0.000000 -0.612380
vn 0.790563 0.000000 -0.612380
vn 0.790563 0.000000 -0.612380
vn -0.377548 0.000000 0.925990
vn -0.377548 0.000000 0.925990
vn -0.377548 0.000000 0.925990
vn -0.377548 0.000000 0.925990
vn 0.226279 0.000000 -0.974063
vn 0.226279 0.000000 -0.974063
vn 0.226279 0.000000 -0.974063
vn 0.226279 0.000000 -0.974063
vn 0.046720 0.000000 0.998908
vn 0.046720 0.000000 0.998908
vn 0.046720 0.000000 0.998908
vn 0.046720 0.000000 0.998908
vn -0.092055 0.000000 -0.995754
vn -0.092055 0.000000 -0.995754
vn -0.092055 0.000000 -0.995754
vn -0.092055 0.000000 -0.995754
vn 0.175642 0.000000 -0.984454
vn 0.175642 0.000000 -0.984454
vn 0.175642 0.000000 -0.984454
vn 0.175642 0.000000 -0.984454
vn -0.102970 0.000000 0.994684
vn -0.102970 0.000000 0.994684
vn -0.102970 0.000000 0.994684
vn -0.102970 0.000000 0.994684
vn -0.481120 0.000000 0.876655
vn -0.481120 0.000000 0.876655
vn -0.481120 0.000000 0.876655
vn -0.481120 0.000000 0.876655
vn 0.389138 0.000000 -0.921180
vn 0.389138 0.000000 -0.921180
vn 0.389138 0.000000 -0.921180
vn 0.389138 0.000000 -0.921180
vn -0.693643 0.000000 0.720319
vn -0.693643 0.000000 0.720319
vn -0.693643 0.000000 0.720319
vn -0.693643 0.000000 0.720319
vn 0.631480 0.000000 -0.775392
vn 0.631480 0.000000 -0.775392
vn 0.631480 0.000000 -0.775392
vn 0.631480 0.000000 -0.775392
vn 0.998387 0.000000 0.056780
vn 0.998387 0.000000 0.056780
vn 0.998387 0.000000 0.056780
vn 0.998387 0.000000 0.056780
vn -0.999990 0.000000 -0.004454
vn -0.999990 0.000000 -0.004454
vn -0.999990 0.000000 -0.004454
vn -0.999990 0.000000 -0.004454
vn 0.999978 0.000000 0.006686
vn 0.999978 0.000000 0.006686
vn 0.999978 0.000000 0.006686
vn 0.999978 0.000000 0.006686
vn -0.996911 0.000000 0.078547
vn -0.996911 0.000000 0.078547
vn -0.996911 0.000000 0.078547
vn -0.996911 0.000000 0.078547
vn 0.986741 0.000000 0.162302
vn 0.986741 0.000000 0.162302
vn 0.986741 0.000000 0.162302
vn 0.986741 0.000000 0.162302
vn -0.991814 0.000000 -0.127688
vn -0.991814 0.000000 -0.127688
vn -0.991814 0.000000 -0.127688
vn -0.991814 0.000000 -0.127688
vn -0.997812 0.000000 -0.066120
vn -0.997812 0.000000 -0.066120
vn -0.997812 0.000000 -0.066120
vn -0.997812 0.000000 -0.066120
vn 1.000000 0.000000 0.000472
vn 1.000000 0.000000 0.000472
vn 1.000000 0.000000 0.000472
vn 1.000000 0.000000 0.000472
vn 0.986552 0.000000 -0.163451
vn 0.986552 0.000000 -0.163451
vn 0.986552 0.000000 -0.163451
vn 0.986552 0.000000 -0.163451
vn -0.987063 0.000000 0.160331
vn -0.987063 0.000000 0.160331
vn -0.987063 0.000000 0.160331
vn -0.987063 0.000000 0.160331
vn -0.995070 0.000000 0.099180
vn -0.995070 0.000000 0.099180
vn -0.995070 0.000000 0.099180
vn -0.995070 0.000000 0.099180
vn 0.998503 0.000000 -0.054698
vn 0.998503 0.000000 -0.054698
vn 0.998503 0.000000 -0.054698
vn 0.998503 0.000000 -0.054698
vn -0.996546 0.000000 -0.083045
vn -0.996546 0.000000 -0.083045
vn -0.996546 0.000000 -0.083045
vn -0.996546 0.000000 -0.083045
vn 0.999764 0.000000 0.021736
vn 0.999764 0.000000 0.021736
vn 0.999764 0.000000 0.021736
vn 0.999764 0.000000 0.021736
vn -0.995037 0.000000 -0.099505
vn -0.995037 0.000000 -0.099505
vn -0.995037 0.000000 -0.099505
vn -0.995037 0.000000 -0.099505
vn 0.990712 0.000000 0.135977
vn 0.990712 0.000000 0.135977
vn 0.990712 0.000000 0.135977
vn 0.990712 0.000000 0.135977
vn 0.998367 0.000000 0.057126
vn 0.998367 0.000000 0.057126
vn 0.998367 0.000000 0.057126
vn 0.998367 0.000000 0.057126
vn -0.999923 0.000000 -0.012400
vn -0.999923 0.000000 -0.012400
vn -0.999923 0.000000 -0.012400
vn -0.999923 0.000000 -0.012400
vn -0.100430 0.000000 0.994944
vn -0.100430 0.000000 0.994944
vn -0.100430 0.000000 0.994944
vn -0.100430 0.000000 0.994944
vn -0.093482 0.000000 -0.995621
vn -0.093482 0.000000 -0.995621
vn -0.093482 0.000000 -0.995621
vn -0.093482 0.000000 -0.995621
vn -0.144269 0.000000 0.989539
vn -0.144269 0.000000 0.989539
vn -0.144269 0.000000 0.989539
vn -0.144269 0.000000 0.989539
vn -0.015157 0.000000 0.999885
vn -0.015157 0.000000 0.999885
vn -0.015157 0.000000 0.999885
vn -0.015157 0.000000 0.999885
vn 0.113546 0.000000 -0.993533
vn 0.113546 0.000000 -0.993533
vn 0.113546 0.000000 -0.993533
vn 0.113546 0.000000 -0.993533
vn -0.762360 0.000000 0.647153
vn -0.762360 0.000000 0.647153
vn -0.762360 0.000000 0.647153
vn -0.762360 0.000000 0.647153
vn 0.531679 0.000000 -0.846946
vn 0.531679 0.000000 -0.846946
vn 0.531679 0.000000 -0.846946
vn 0.531679 0.000000 -0.846946
vn -0.955089 0.000000 0.296318
vn -0.955089 0.000000 0.296318
vn -0.955089 0.000000 0.296318
vn -0.955089 0.000000 0.296318
vn 0.886989 0.000000 -0.461791
vn 0.886989 0.000000 -0.461791
vn 0.886989 0.000000 -0.461791
vn 0.886989 0.000000 -0.461791
vn -0.492815 0.000000 0.870134
vn -0.492815 0.000000 0.870134
vn -0.492815 0.000000 0.870134
vn -0.492815 0.000000 0.870134
vn 0.530669 0.000000 -0.847579
vn 0.530669 0.000000 -0.847579
vn 0.530669 0.000000 -0.847579
vn 0.530669 0.000000 -0.847579
s off
g polySurface4
usemtl initialShadingGroup
f 49/168/1 50/165/2 51/166/3 52/167/4
f 53/169/5 50/170/6 49/171/7 54/172/8
f 55/173/9 53/174/10 54/175/11 56/176/12
s 1
f 56/177/13 57/178/14 58/179/15 55/180/16
s 2
f 59/181/17 60/182/18 61/183/19 62/184/20
s off
f 63/185/21 64/186/22 65/187/23 66/188/24
s 3
f 67/189/25 68/190/26 69/191/27 70/192/28
s 4
f 70/193/29 71/194/30 72/195/31 67/196/32
s 5
f 74/200/33 73/197/34 75/198/35 76/199/36
s off
f 77/204/37 78/201/38 79/202/39 80/203/40
f 81/205/41 78/206/42 77/207/43 82/208/44
f 83/209/45 81/210/46 82/211/47 84/212/48
f 84/213/49 85/214/50 86/215/51 83/216/52
f 87/217/53 86/218/54 85/219/55 88/220/56
f 88/221/57 89/222/58 90/223/59 87/224/60
f 89/225/61 91/226/62 92/227/63 90/228/64
f 91/229/65 93/230/66 94/231/67 92/232/68
f 95/233/69 94/234/70 93/235/71 96/236/72
s 3
f 69/191/27 68/190/26 65/237/73 64/238/74
s 2
f 61/183/19 60/182/18 63/239/75 66/240/76
s 1
f 58/179/15 57/178/14 59/241/77 62/242/78
s 5
f 76/199/36 75/198/35 80/243/79 79/244/80
s 4
f 72/195/31 71/194/30 73/245/81 74/246/82
s off
f 1/83/83 2/84/84 3/85/85 4/86/86
f 6/87/87 2/88/88 1/89/89 5/90/90
f 8/91/91 6/92/92 5/93/93 7/94/94
s 6
f 7/95/95 43/96/96 44/97/97 8/98/98
s 7
f 9/99/99 41/100/100 42/101/101 10/102/102
s off
f 11/103/103 13/104/104 14/105/105 12/106/106
s 8
f 16/107/107 39/108/108 40/109/109 15/110/110
s 9
f 15/111/111 47/112/112 48/113/113 16/114/114
s 10
f 18/115/115 17/116/116 45/117/117 46/118/118
s off
f 22/119/119 21/120/120 20/121/121 19/122/122
f 24/123/123 21/124/124 22/125/125 23/126/126
f 26/127/127 24/128/128 23/129/129 25/130/130
f 25/131/131 27/132/132 28/133/133 26/134/134
f 30/135/135 28/136/136 27/137/137 29/138/138
f 29/139/139 31/140/140 32/141/141 30/142/142
f 31/143/143 33/144/144 34/145/145 32/146/146
f 33/147/147 35/148/148 36/149/149 34/150/150
f 38/151/151 36/152/152 35/153/153 37/154/154
s 8
f 40/109/109 39/108/108 14/155/155 13/156/156
s 7
f 42/101/101 41/100/100 11/157/157 12/158/158
s 6
f 44/97/97 43/96/96 9/159/159 10/160/160
s 10
f 46/118/118 45/117/117 19/161/161 20/162/162
s 9
f 48/113/113 47/112/112 17/163/163 18/164/164
s off
f 2/2/165 3/3/166 51/166/167 50/165/168
f 3/3/169 4/4/170 52/167/171 51/166/172
f 4/4/173 1/1/174 49/168/175 52/167/176
f 6/5/177 2/6/178 50/170/179 53/169/180
f 1/7/181 5/8/182 54/172/183 49/171/184
f 8/9/185 6/10/186 53/174/187 55/173/188
f 5/11/189 7/12/190 56/176/191 54/175/192
f 7/13/193 43/77/194 57/178/195 56/177/196
f 44/78/197 8/16/198 55/180/199 58/179/200
f 9/17/201 41/75/202 60/182/203 59/181/204
f 42/76/205 10/20/206 62/184/207 61/183/208
f 11/21/209 13/22/210 64/186/211 63/185/212
f 14/23/213 12/24/214 66/188/215 65/187/216
f 16/25/217 39/73/218 68/190/219 67/189/220
f 40/74/221 15/28/222 70/192/223 69/191/224
f 15/29/225 47/81/226 71/194/227 70/193/228
f 48/82/229 16/32/230 67/196/231 72/195/232
f 17/34/233 45/79/234 75/198/235 73/197/236
f 46/80/237 18/33/238 74/200/239 76/199/240
f 21/38/241 20/39/242 79/202/243 78/201/244
f 19/40/245 22/37/246 77/204/247 80/203/248
f 24/41/249 21/42/250 78/206/251 81/205/252
f 22/43/253 23/44/254 82/208/255 77/207/256
f 26/45/257 24/46/258 81/210/259 83/209/260
f 23/47/261 25/48/262 84/212/263 82/211/264
f 25/49/265 27/50/266 85/214/267 84/213/268
f 28/51/269 26/52/270 83/216/271 86/215/272
f 30/53/273 28/54/274 86/218/275 87/217/276
f 27/55/277 29/56/278 88/220/279 85/219/280
f 29/57/281 31/58/282 89/222/283 88/221/284
f 32/59/285 30/60/286 87/224/287 90/223/288
f 31/61/289 33/62/290 91/226/291 89/225/292
f 34/63/293 32/64/294 90/228/295 92/227/296
f 33/65/297 35/66/298 93/230/299 91/229/300
f 36/67/301 34/68/302 92/232/303 94/231/304
f 38/69/305 36/70/306 94/234/307 95/233/308
f 35/71/309 37/72/310 96/236/311 93/235/312
f 37/72/313 38/69/314 95/233/315 96/236/316
f 39/73/317 14/26/318 65/237/319 68/190/320
f 13/27/321 40/74/322 69/191/323 64/238/324
f 41/75/325 11/18/326 63/239/327 60/182/328
f 12/19/329 42/76/330 61/183/331 66/240/332
f 43/77/333 9/14/334 59/241/335 57/178/336
f 10/15/337 44/78/338 58/179/339 62/242/340
f 45/79/341 19/35/342 80/243/343 75/198/344
f 20/36/345 46/80/346 76/199/347 79/244/348
f 47/81/349 17/30/350 73/245/351 71/194/352
f 18/31/353 48/82/354 72/195/355 74/246/356
