# This file uses centimeters as units for non-parametric coordinates.

mtllib Road_straight.mtl
g default
v 2.709513 0.536406 -5.682220
v 2.709513 0.536406 -5.968258
v 2.709513 0.581526 -5.968258
v 2.709513 0.581526 -5.682220
v 2.709513 0.536406 -5.396182
v 2.709513 0.581526 -5.396182
v 4.588594 0.536406 -5.682220
v 4.588594 0.536406 -5.968258
v 4.588594 0.581526 -5.968258
v 4.588594 0.581526 -5.682220
v 4.588594 0.536406 -5.396182
v 4.588594 0.581526 -5.396182
vt 0.500000 0.150000
vt 0.634375 0.234375
vt 0.634375 0.766095
vt 0.500000 0.837500
vt 0.415625 0.234375
vt 0.415625 0.766095
vt 0.500000 0.150000
vt 0.634375 0.234375
vt 0.634375 0.766095
vt 0.500000 0.837500
vt 0.415625 0.234375
vt 0.415625 0.766095
vn 1.000000 0.000000 0.000000
vn 1.000000 0.000000 0.000000
vn 1.000000 0.000000 0.000000
vn 1.000000 0.000000 0.000000
vn 1.000000 0.000000 0.000000
vn 1.000000 0.000000 0.000000
vn 1.000000 0.000000 0.000000
vn 1.000000 0.000000 0.000000
vn 0.000000 -1.000000 0.000000
vn 0.000000 -1.000000 0.000000
vn 0.000000 -1.000000 0.000000
vn 0.000000 -1.000000 0.000000
vn 0.000000 0.000000 -1.000000
vn 0.000000 0.000000 -1.000000
vn 0.000000 0.000000 -1.000000
vn 0.000000 0.000000 -1.000000
vn 0.000000 1.000000 0.000000
vn 0.000000 1.000000 0.000000
vn 0.000000 1.000000 0.000000
vn 0.000000 1.000000 0.000000
vn 0.000000 -1.000000 0.000000
vn 0.000000 -1.000000 0.000000
vn 0.000000 -1.000000 0.000000
vn 0.000000 -1.000000 0.000000
vn 0.000000 1.000000 0.000000
vn 0.000000 1.000000 0.000000
vn 0.000000 1.000000 0.000000
vn 0.000000 1.000000 0.000000
vn -0.000000 0.000000 1.000000
vn -0.000000 0.000000 1.000000
vn -0.000000 0.000000 1.000000
vn -0.000000 0.000000 1.000000
vn -1.000000 0.000000 -0.000000
vn -1.000000 0.000000 -0.000000
vn -1.000000 0.000000 -0.000000
vn -1.000000 0.000000 -0.000000
vn -1.000000 0.000000 -0.000000
vn -1.000000 0.000000 -0.000000
vn -1.000000 0.000000 -0.000000
vn -1.000000 0.000000 -0.000000
s off
g pCylinder3
usemtl initialShadingGroup
f 7/7/1 8/8/2 9/9/3 10/10/4
f 11/11/5 7/7/6 10/10/7 12/12/8
f 1/1/9 2/2/10 8/8/11 7/7/12
f 2/2/13 3/3/14 9/9/15 8/8/16
f 3/3/17 4/4/18 10/10/19 9/9/20
f 5/5/21 1/1/22 7/7/23 11/11/24
f 4/4/25 6/6/26 12/12/27 10/10/28
f 6/6/29 5/5/30 11/11/31 12/12/32
f 2/2/33 1/1/34 4/4/35 3/3/36
f 1/1/37 5/5/38 6/6/39 4/4/40
